<mxfile host="app.diagrams.net" agent="Mozilla/5.0 (Macintosh; Intel Mac OS X 10_15_7) AppleWebKit/537.36 (KHTML, like Gecko) Chrome/134.0.0.0 Safari/537.36" version="26.0.15">
  <diagram name="第 1 页" id="EI29uZ4JaS5HILEmA_5I">
    <mxGraphModel dx="956" dy="677" grid="1" gridSize="10" guides="1" tooltips="1" connect="1" arrows="1" fold="1" page="1" pageScale="1" pageWidth="827" pageHeight="1169" math="0" shadow="0">
      <root>
        <mxCell id="0" />
        <mxCell id="1" parent="0" />
        <mxCell id="PxwuyFFo9z4wiipsopS9-1" value="&lt;font style=&quot;font-size: 17px;&quot;&gt;APP Moudle【入口】&lt;/font&gt;" style="rounded=0;whiteSpace=wrap;html=1;fillColor=#d5e8d4;strokeColor=#82b366;" vertex="1" parent="1">
          <mxGeometry x="80" y="120" width="540" height="80" as="geometry" />
        </mxCell>
        <mxCell id="PxwuyFFo9z4wiipsopS9-17" style="edgeStyle=orthogonalEdgeStyle;rounded=0;orthogonalLoop=1;jettySize=auto;html=1;exitX=1;exitY=0.5;exitDx=0;exitDy=0;entryX=0;entryY=0.5;entryDx=0;entryDy=0;" edge="1" parent="1" source="PxwuyFFo9z4wiipsopS9-2" target="PxwuyFFo9z4wiipsopS9-8">
          <mxGeometry relative="1" as="geometry" />
        </mxCell>
        <mxCell id="PxwuyFFo9z4wiipsopS9-2" value="" style="rounded=0;whiteSpace=wrap;html=1;fillColor=#f8cecc;strokeColor=#b85450;" vertex="1" parent="1">
          <mxGeometry x="80" y="240" width="280" height="190" as="geometry" />
        </mxCell>
        <mxCell id="PxwuyFFo9z4wiipsopS9-3" value="&lt;font style=&quot;font-size: 18px;&quot;&gt;业务组件&lt;/font&gt;" style="text;html=1;align=center;verticalAlign=middle;whiteSpace=wrap;rounded=0;" vertex="1" parent="1">
          <mxGeometry x="170" y="230" width="90" height="60" as="geometry" />
        </mxCell>
        <mxCell id="PxwuyFFo9z4wiipsopS9-4" value="module_首页" style="rounded=1;whiteSpace=wrap;html=1;" vertex="1" parent="1">
          <mxGeometry x="90" y="290" width="110" height="40" as="geometry" />
        </mxCell>
        <mxCell id="PxwuyFFo9z4wiipsopS9-5" value="module_我的" style="rounded=1;whiteSpace=wrap;html=1;" vertex="1" parent="1">
          <mxGeometry x="230" y="290" width="110" height="40" as="geometry" />
        </mxCell>
        <mxCell id="PxwuyFFo9z4wiipsopS9-6" value="module_登录" style="rounded=1;whiteSpace=wrap;html=1;" vertex="1" parent="1">
          <mxGeometry x="90" y="350" width="110" height="50" as="geometry" />
        </mxCell>
        <mxCell id="PxwuyFFo9z4wiipsopS9-7" value="&lt;div style=&quot;line-height: 190%;&quot;&gt;.....&lt;/div&gt;" style="text;html=1;align=center;verticalAlign=middle;whiteSpace=wrap;rounded=0;" vertex="1" parent="1">
          <mxGeometry x="245" y="340" width="95" height="70" as="geometry" />
        </mxCell>
        <mxCell id="PxwuyFFo9z4wiipsopS9-8" value="&lt;span style=&quot;color: rgba(0, 0, 0, 0); font-family: monospace; font-size: 0px; text-align: start; text-wrap-mode: nowrap;&quot;&gt;%3CmxGraphModel%3E%3Croot%3E%3CmxCell%20id%3D%220%22%2F%3E%3CmxCell%20id%3D%221%22%20parent%3D%220%22%2F%3E%3CmxCell%20id%3D%222%22%20value%3D%22%26lt%3Bfont%20style%3D%26quot%3Bfont-size%3A%2016px%3B%26quot%3B%26gt%3B%E6%94%AF%E4%BB%98%26lt%3B%2Ffont%26gt%3B%22%20style%3D%22rounded%3D1%3BwhiteSpace%3Dwrap%3Bhtml%3D1%3B%22%20vertex%3D%221%22%20parent%3D%221%22%3E%3CmxGeometry%20x%3D%22432%22%20y%3D%22290%22%20width%3D%22136%22%20height%3D%2237%22%20as%3D%22geometry%22%2F%3E%3C%2FmxCell%3E%3C%2Froot%3E%3C%2FmxGraphModel%3E&lt;/span&gt;" style="rounded=0;whiteSpace=wrap;html=1;fillColor=#e1d5e7;strokeColor=#9673a6;" vertex="1" parent="1">
          <mxGeometry x="400" y="240" width="220" height="190" as="geometry" />
        </mxCell>
        <mxCell id="PxwuyFFo9z4wiipsopS9-9" value="&lt;font style=&quot;font-size: 18px;&quot;&gt;功能组件&lt;/font&gt;" style="text;html=1;align=center;verticalAlign=middle;whiteSpace=wrap;rounded=0;fontSize=16;" vertex="1" parent="1">
          <mxGeometry x="458" y="237.5" width="110" height="45" as="geometry" />
        </mxCell>
        <mxCell id="PxwuyFFo9z4wiipsopS9-11" value="&lt;font style=&quot;font-size: 16px;&quot;&gt;支付&lt;/font&gt;" style="rounded=1;whiteSpace=wrap;html=1;" vertex="1" parent="1">
          <mxGeometry x="442" y="290" width="136" height="37" as="geometry" />
        </mxCell>
        <mxCell id="PxwuyFFo9z4wiipsopS9-12" value="&lt;span style=&quot;font-size: 16px;&quot;&gt;客服&lt;/span&gt;" style="rounded=1;whiteSpace=wrap;html=1;" vertex="1" parent="1">
          <mxGeometry x="442" y="340" width="136" height="37" as="geometry" />
        </mxCell>
        <mxCell id="PxwuyFFo9z4wiipsopS9-13" value="&lt;div style=&quot;line-height: 190%;&quot;&gt;.....&lt;/div&gt;" style="text;html=1;align=center;verticalAlign=middle;whiteSpace=wrap;rounded=0;" vertex="1" parent="1">
          <mxGeometry x="452.5" y="370" width="97.5" height="60" as="geometry" />
        </mxCell>
        <mxCell id="PxwuyFFo9z4wiipsopS9-14" value="" style="endArrow=classic;html=1;rounded=0;exitX=0.25;exitY=1;exitDx=0;exitDy=0;" edge="1" parent="1" source="PxwuyFFo9z4wiipsopS9-1">
          <mxGeometry width="50" height="50" relative="1" as="geometry">
            <mxPoint x="214.88999999999993" y="207.5" as="sourcePoint" />
            <mxPoint x="214.89" y="237.5" as="targetPoint" />
          </mxGeometry>
        </mxCell>
        <mxCell id="PxwuyFFo9z4wiipsopS9-18" value="" style="rounded=0;whiteSpace=wrap;html=1;fillColor=#fff2cc;strokeColor=#d6b656;" vertex="1" parent="1">
          <mxGeometry x="80" y="470" width="540" height="50" as="geometry" />
        </mxCell>
        <mxCell id="PxwuyFFo9z4wiipsopS9-19" value="&lt;font style=&quot;font-size: 18px;&quot;&gt;lib_common&lt;/font&gt;" style="text;html=1;align=center;verticalAlign=middle;whiteSpace=wrap;rounded=0;" vertex="1" parent="1">
          <mxGeometry x="300" y="475" width="90" height="40" as="geometry" />
        </mxCell>
        <mxCell id="PxwuyFFo9z4wiipsopS9-24" style="edgeStyle=orthogonalEdgeStyle;rounded=0;orthogonalLoop=1;jettySize=auto;html=1;entryX=0.254;entryY=-0.057;entryDx=0;entryDy=0;entryPerimeter=0;" edge="1" parent="1">
          <mxGeometry relative="1" as="geometry">
            <mxPoint x="221.42098901098902" y="430.0000000000001" as="sourcePoint" />
            <mxPoint x="218.57000000000002" y="467.14999999999986" as="targetPoint" />
          </mxGeometry>
        </mxCell>
        <mxCell id="PxwuyFFo9z4wiipsopS9-25" style="edgeStyle=orthogonalEdgeStyle;rounded=0;orthogonalLoop=1;jettySize=auto;html=1;entryX=0.764;entryY=-0.033;entryDx=0;entryDy=0;entryPerimeter=0;exitX=0.5;exitY=1;exitDx=0;exitDy=0;" edge="1" parent="1" source="PxwuyFFo9z4wiipsopS9-13" target="PxwuyFFo9z4wiipsopS9-18">
          <mxGeometry relative="1" as="geometry">
            <mxPoint x="500" y="440" as="sourcePoint" />
          </mxGeometry>
        </mxCell>
        <mxCell id="PxwuyFFo9z4wiipsopS9-26" value="" style="rounded=0;whiteSpace=wrap;html=1;fillColor=#dae8fc;strokeColor=#6c8ebf;" vertex="1" parent="1">
          <mxGeometry x="80" y="550" width="540" height="140" as="geometry" />
        </mxCell>
        <mxCell id="PxwuyFFo9z4wiipsopS9-27" value="网络请求" style="rounded=1;whiteSpace=wrap;html=1;" vertex="1" parent="1">
          <mxGeometry x="120" y="580" width="100" height="40" as="geometry" />
        </mxCell>
        <mxCell id="PxwuyFFo9z4wiipsopS9-28" value="图片加载" style="rounded=1;whiteSpace=wrap;html=1;" vertex="1" parent="1">
          <mxGeometry x="290" y="580" width="100" height="40" as="geometry" />
        </mxCell>
        <mxCell id="PxwuyFFo9z4wiipsopS9-29" value="工具类" style="rounded=1;whiteSpace=wrap;html=1;" vertex="1" parent="1">
          <mxGeometry x="458" y="580" width="100" height="40" as="geometry" />
        </mxCell>
        <mxCell id="PxwuyFFo9z4wiipsopS9-30" value="UI" style="rounded=1;whiteSpace=wrap;html=1;" vertex="1" parent="1">
          <mxGeometry x="120" y="640" width="100" height="40" as="geometry" />
        </mxCell>
        <mxCell id="PxwuyFFo9z4wiipsopS9-31" value="其他第三方库" style="rounded=1;whiteSpace=wrap;html=1;" vertex="1" parent="1">
          <mxGeometry x="290" y="640" width="100" height="40" as="geometry" />
        </mxCell>
        <mxCell id="PxwuyFFo9z4wiipsopS9-32" value="&lt;div style=&quot;line-height: 190%;&quot;&gt;.....&lt;/div&gt;" style="text;html=1;align=center;verticalAlign=middle;whiteSpace=wrap;rounded=0;" vertex="1" parent="1">
          <mxGeometry x="442.5" y="620" width="117.5" height="60" as="geometry" />
        </mxCell>
        <mxCell id="PxwuyFFo9z4wiipsopS9-33" value="基础组件" style="text;html=1;align=center;verticalAlign=middle;whiteSpace=wrap;rounded=0;" vertex="1" parent="1">
          <mxGeometry x="290" y="550" width="90" height="30" as="geometry" />
        </mxCell>
        <mxCell id="PxwuyFFo9z4wiipsopS9-34" style="edgeStyle=orthogonalEdgeStyle;rounded=0;orthogonalLoop=1;jettySize=auto;html=1;exitX=0.5;exitY=1;exitDx=0;exitDy=0;entryX=0.667;entryY=0;entryDx=0;entryDy=0;entryPerimeter=0;" edge="1" parent="1" source="PxwuyFFo9z4wiipsopS9-18" target="PxwuyFFo9z4wiipsopS9-33">
          <mxGeometry relative="1" as="geometry" />
        </mxCell>
      </root>
    </mxGraphModel>
  </diagram>
</mxfile>
